<svg xmlns="http://www.w3.org/2000/svg" fill="none" viewBox="0 0 33 32">
<title>blockquote</title>
  <path fill="currentColor" d="M14.855 17.143V24a3.43 3.43 0 0 1-3.429 3.429H4.57A3.43 3.43 0 0 1 1.141 24V11.429c0-5.036 4.107-9.143 9.143-9.143h1.142a1.15 1.15 0 0 1 1.143 1.143v2.285a1.15 1.15 0 0 1-1.143 1.143h-1.143a4.58 4.58 0 0 0-4.571 4.572V12c0 .947.768 1.714 1.714 1.714h4a3.43 3.43 0 0 1 3.429 3.429Zm16 0V24a3.43 3.43 0 0 1-3.429 3.429H20.57A3.43 3.43 0 0 1 17.141 24V11.429c0-5.036 4.107-9.143 9.143-9.143h1.142a1.15 1.15 0 0 1 1.143 1.143v2.285a1.15 1.15 0 0 1-1.143 1.143h-1.142a4.58 4.58 0 0 0-4.572 4.572V12c0 .947.768 1.714 1.714 1.714h4a3.43 3.43 0 0 1 3.429 3.429Z"/>
</svg>
